<svg xmlns="http://www.w3.org/2000/svg" viewBox="0 0 900 570" width="900" height="570" font-family="'Hiragino Sans','Noto Sans JP','Yu Gothic',Meiryo,sans-serif">
  <defs>
    <marker id="arrow-blue" viewBox="0 0 10 10" refX="8" refY="5" markerWidth="7" markerHeight="7" orient="auto">
      <path d="M0,0 L10,5 L0,10 z" fill="#1D4ED8"/>
    </marker>
  </defs>

  <!-- 背景 -->
  <rect width="900" height="570" fill="#FFFFFF"/>

  <!-- タイトル -->
  <text x="450" y="48" text-anchor="middle" font-size="26" font-weight="bold" fill="#111827">スパイラルモデル</text>
  <text x="450" y="78" text-anchor="middle" font-size="15" fill="#4B5563">「計画 → リスク分析 → 実装 → 評価」を1周として、らせん状に繰り返す</text>

  <!-- ===== 4つのフェーズ ===== -->
  <rect x="240" y="90" width="210" height="210" fill="#EFF6FF"/>
  <text x="254" y="116" text-anchor="start" font-size="16" font-weight="bold" fill="#1D4ED8">計画</text>
  <text x="254" y="134" text-anchor="start" font-size="11" fill="#374151">目標・要件を決める</text>
  <rect x="450" y="90" width="210" height="210" fill="#FFFBEB"/>
  <text x="646" y="116" text-anchor="end" font-size="16" font-weight="bold" fill="#B45309">リスク分析</text>
  <text x="646" y="134" text-anchor="end" font-size="11" fill="#374151">リスクを洗い出し対策する</text>
  <rect x="450" y="300" width="210" height="210" fill="#ECFDF5"/>
  <text x="646" y="480" text-anchor="end" font-size="16" font-weight="bold" fill="#047857">実装</text>
  <text x="646" y="498" text-anchor="end" font-size="11" fill="#374151">開発・テストする</text>
  <rect x="240" y="300" width="210" height="210" fill="#F5F3FF"/>
  <text x="254" y="480" text-anchor="start" font-size="16" font-weight="bold" fill="#6D28D9">評価</text>
  <text x="254" y="498" text-anchor="start" font-size="11" fill="#374151">結果を確認し次の周へ</text>
  <line x1="240" y1="300" x2="660" y2="300" stroke="#9CA3AF" stroke-width="1" stroke-dasharray="5 4"/>
  <line x1="450" y1="90" x2="450" y2="510" stroke="#9CA3AF" stroke-width="1" stroke-dasharray="5 4"/>

  <!-- ===== らせん ===== -->
  <polyline points="438.0,300.0 437.4,299.1 436.8,298.1 436.3,297.1 435.9,296.0 435.6,294.8 435.4,293.5 435.3,292.2 435.3,290.8 435.4,289.4 435.7,288.0 436.1,286.6 436.6,285.1 437.3,283.7 438.1,282.3 439.0,280.9 440.1,279.6 441.3,278.4 442.6,277.2 444.0,276.1 445.6,275.1 447.3,274.1 449.1,273.3 451.0,272.7 452.9,272.2 455.0,271.8 457.1,271.5 459.3,271.5 461.5,271.6 463.7,271.8 466.0,272.3 468.3,272.9 470.5,273.7 472.8,274.7 474.9,275.9 477.1,277.3 479.1,278.8 481.1,280.6 483.0,282.5 484.7,284.5 486.3,286.8 487.8,289.2 489.1,291.7 490.3,294.3 491.2,297.1 492.0,300.0 492.6,303.0 492.9,306.0 493.0,309.1 492.9,312.3 492.6,315.5 492.0,318.7 491.2,321.9 490.1,325.1 488.8,328.2 487.3,331.3 485.5,334.3 483.5,337.2 481.2,339.9 478.7,342.6 476.0,345.0 473.1,347.3 470.0,349.4 466.7,351.4 463.2,353.0 459.6,354.5 455.9,355.7 452.0,356.6 448.0,357.3 443.9,357.7 439.8,357.8 435.6,357.6 431.5,357.1 427.3,356.2 423.1,355.1 419.0,353.7 415.0,352.0 411.0,349.9 407.2,347.6 403.5,344.9 400.0,342.0 396.6,338.8 393.5,335.3 390.5,331.6 387.9,327.7 385.5,323.5 383.4,319.1 381.5,314.6 380.0,309.8 378.8,305.0 378.0,300.0 377.5,294.9 377.4,289.8 377.6,284.6 378.2,279.4 379.2,274.2 380.6,269.1 382.3,264.0 384.4,259.0 386.9,254.2 389.7,249.4 392.9,244.9 396.5,240.5 400.3,236.4 404.5,232.6 409.0,229.0 413.8,225.7 418.8,222.7 424.0,220.1 429.5,217.8 435.2,216.0 441.0,214.5 447.0,213.4 453.0,212.7 459.2,212.5 465.4,212.7 471.6,213.3 477.8,214.4 484.0,215.9 490.0,217.9 496.0,220.3 501.8,223.2 507.5,226.5 512.9,230.1 518.1,234.2 523.0,238.7 527.7,243.6 532.0,248.8 535.9,254.3 539.5,260.1 542.7,266.3 545.5,272.6 547.8,279.2 549.7,286.0 551.1,292.9 552.0,300.0 552.4,307.2 552.3,314.4 551.7,321.6 550.6,328.9 549.0,336.0 546.8,343.1 544.2,350.1 541.0,356.9 537.4,363.5 533.2,369.8 528.6,375.9 523.6,381.7 518.1,387.2 512.3,392.3 506.0,397.0 499.4,401.3 492.5,405.1 485.2,408.4 477.7,411.3 470.0,413.6 462.1,415.4 454.1,416.6 445.9,417.3 437.7,417.4 429.4,416.9 421.1,415.8 412.9,414.1 404.8,411.9 396.8,409.1 389.0,405.7 381.4,401.7 374.1,397.2 367.0,392.1 360.3,386.6 354.0,380.6 348.1,374.1 342.6,367.1 337.6,359.8 333.1,352.1 329.1,344.0 325.7,335.6 322.8,327.0 320.6,318.2 319.0,309.2 318.0,300.0 317.7,290.7 318.0,281.4 318.9,272.1 320.6,262.9 322.8,253.7 325.8,244.7 329.3,235.8 333.5,227.2 338.4,218.9 343.8,210.9 349.8,203.2 356.3,196.0 363.4,189.2 371.0,182.8 379.0,177.0 387.5,171.8 396.3,167.1 405.5,163.0 415.0,159.6 424.8,156.9 434.7,154.8 444.9,153.4 455.1,152.8 465.5,152.8 475.8,153.6 486.1,155.1 496.4,157.3 506.4,160.3 516.3,164.0 526.0,168.4 535.4,173.4 544.4,179.2 553.0,185.6 561.3,192.6 569.0,200.2 576.2,208.3 582.9,217.0 588.9,226.1 594.3,235.7 599.1,245.7 603.2,256.1 606.5,266.7 609.1,277.6 610.9,288.7 612.0,300.0 612.3,311.3 611.7,322.7 610.4,334.1 608.3,345.4 605.4,356.5 601.6,367.5 597.2,378.2 591.9,388.7 585.9,398.7 579.2,408.4 571.8,417.6 563.8,426.3 555.1,434.5 545.8,442.0 536.0,449.0 525.7,455.2 514.9,460.7 503.8,465.5 492.3,469.5 480.4,472.7 468.4,475.0 456.2,476.6 443.8,477.2 431.4,477.0 419.0,476.0 406.6,474.0 394.4,471.2 382.3,467.5 370.5,463.0 359.0,457.6 347.9,451.4 337.1,444.5 326.9,436.7 317.2,428.3 308.0,419.1 299.5,409.3 291.7,398.9 284.6,387.9 278.3,376.5 272.7,364.5 268.0,352.2 264.2,339.5 261.2,326.5 259.1,313.3 258.0,300.0" fill="none" stroke="#1D4ED8" stroke-width="3" stroke-linecap="round" marker-end="url(#arrow-blue)"/>
  <circle cx="438" cy="300" r="5" fill="#1D4ED8"/>
  <text x="432" y="320" text-anchor="end" font-size="11" font-weight="bold" fill="#1D4ED8">開始</text>

  <!-- 周ごとの成果物 -->
  <circle cx="492.0" cy="300" r="6" fill="#FFFFFF" stroke="#047857" stroke-width="2.5"/>
  <text x="500.0" y="320" font-size="11" font-weight="bold" fill="#047857">試作①</text>
  <circle cx="552.0" cy="300" r="6" fill="#FFFFFF" stroke="#047857" stroke-width="2.5"/>
  <text x="560.0" y="320" font-size="11" font-weight="bold" fill="#047857">試作②</text>
  <circle cx="612.0" cy="300" r="6" fill="#FFFFFF" stroke="#047857" stroke-width="2.5"/>
  <text x="620.0" y="320" font-size="11" font-weight="bold" fill="#047857">試作③</text>
  <text x="230" y="296" text-anchor="end" font-size="15" font-weight="bold" fill="#1D4ED8">完成・</text>
  <text x="230" y="316" text-anchor="end" font-size="15" font-weight="bold" fill="#1D4ED8">リリース</text>

  <!-- 補足 -->
  <text x="450" y="545" text-anchor="middle" font-size="13" fill="#4B5563">周回を重ねるごとにリスクを減らしながら、システムを少しずつ完成に近づけていく</text>
</svg>
